<?xml version="1.0" encoding="utf-8"?>
<svg viewBox="0 0 500 500" xmlns="http://www.w3.org/2000/svg">
  <circle style="fill: rgb(228, 175, 0);" cx="404.22" cy="84.157" r="43.588"/>
  <path d="M 17.112 197.528 C 22.519 191.972 28.966 187.615 35.461 183.431 C 40.816 179.98 47.03 176.431 53.383 175.267 C 70.753 172.083 80.635 183.877 91.8 194.741 C 105.186 207.766 119.189 220.581 138.935 219.282 C 148.494 218.653 159.479 215.474 167.216 209.723 C 180.957 199.509 189.5 184.404 207.784 180.968 C 226.238 177.5 238.819 192.257 250.391 204.505 C 256.94 211.437 262.549 218.634 272.667 219.068 C 302.212 220.337 311.617 183.188 337.649 175.532 C 345.059 173.352 354.569 172.521 361.841 175.614 C 374.245 180.889 380.903 193.123 394.801 197.067 C 400.204 198.6 407.356 200.599 412.78 197.976 C 424.603 192.258 432.099 182.824 446.254 186.498 C 447.236 186.753 450.295 186.712 451.135 187.551" style="fill: rgb(51, 116, 214);"/>
  <path d="M 27.137 243.772 C 28.408 236.968 30.599 230.875 33.553 224.61 C 44.504 201.38 71.037 196.21 92.313 209.35 C 97.402 212.493 100.159 217.296 104.325 221.388 C 114.657 231.533 126.539 237.046 141.257 234.234 C 150.536 232.461 156.473 226.299 163.797 220.88 C 175.955 211.885 191.734 202.809 207.233 201.991 C 217.285 201.46 224.307 207.307 232.128 212.74 C 242.114 219.677 256.062 228.848 268.478 229.682 C 286.496 230.894 294.924 213.924 310.844 211.452 C 314.66 210.86 317.97 213.022 321.488 214.05 C 331.737 217.045 343.672 220.906 354.388 220.257 C 377.94 218.83 398.475 202.831 421.469 198.288 C 429.277 196.745 438.99 195.667 446.591 198.898 C 456.081 202.931 462.998 213.374 474.014 209.701" style="fill: rgb(51, 116, 214);"/>
  <path d="M 32.364 272.35 C 39.579 266.86 48.78 263.134 56.921 259.294 C 85.504 245.814 121.815 238.307 152.785 248.655 C 174.228 255.82 189.677 276.99 212.521 278.963 C 240.668 281.394 263.703 260.622 290.056 253.591 C 301.794 250.46 312.285 256.6 323.446 254.219 C 330.731 252.665 336.488 246.984 343.262 244.128 C 350.959 240.883 359.583 240.34 367.845 240.575 C 375.516 240.793 382.1 243.751 389.532 244.899 C 400.732 246.629 417.096 245.069 428.093 241.55" style="fill: rgb(51, 116, 214);"/>
  <path d="M 43.6100656619991 141.28149079323273 C 44.26892758874367 134.94495163453107 45.30486339447439 128.10898542754768 50.86674880981445 124.18643951416016 C 51.521151186463086 123.72491915252984 55.54539438330738 121.50499701375217 56.604190826416016 122.56385040283203 C 57.351475017010884 123.31117478512219 56.54618634830528 125.20662870060019 57.089298248291016 125.74974060058594 C 57.926951751531355 126.58739410382627 58.46820685536805 123.788190322954 59.38200378417969 123.03433227539062 C 61.51940731802231 121.27103147619329 64.03567163727577 120.24963277395037 66.7203369140625 119.62657928466797 C 71.40848290536383 118.5385606987377 76.5839790540181 117.78074393601624 81.40111541748047 118.41008758544922 C 82.95098325300931 118.61257292241183 85.55717468261719 121.13987915270148 85.55717468261719 120.19400024414062" style="stroke: rgb(0, 0, 0); fill: none;"/>
  <path d="M 110.25080458103324 96.15004431972649 C 111.29521105208924 90.26095455036977 112.69500335004427 85.35901724648254 118.38836669921875 82.31596374511719 C 119.28035603926344 81.83920315248838 121.22480173836435 80.97262063120266 122.36526489257812 81.4112548828125 C 123.09765579750373 81.69294020976142 122.84540881957635 84.19711430741033 123.31230163574219 83.56643676757812 C 127.48411079880539 77.93116835369092 132.21492612494058 71.64781706530411 139.19076538085938 69.3481674194336 C 143.65872248753544 67.87526421722542 145.76036819212845 70.77903747558594 149.6029510498047 70.77903747558594" style="stroke: rgb(0, 0, 0); fill: none;"/>
  <path d="M 163.07018150076544 111.57120321688707 C 164.59532699486928 105.41663718247284 167.3994556343731 97.45009230925291 173.89707946777344 94.89012908935547 C 178.1816361933927 93.20208005598913 180.2997494410233 95.33247529100211 180.536376953125 99.59184265136719 C 180.5452952404795 99.7523745427382 180.57069953854864 104.32562255859375 180.50091552734375 104.32562255859375 C 180.28150417369588 104.32562255859375 180.7666880158469 99.90207794550564 180.76783752441406 99.89632415771484 C 181.90215696885588 94.2185644987244 185.85542998430418 89.16966995765384 190.2021484375 85.47798156738281 C 199.8275553272585 77.30307830434064 211.1648504116376 75.71249065377931 219.9861602783203 84.5300064086914" style="stroke: rgb(0, 0, 0); fill: none;"/>
  <path d="M 214.78989444915837 126.70630511524327 C 217.66030469105476 120.02472809990448 221.31352123311575 113.22382760392289 228.40289306640625 110.22547912597656 C 229.95425579064806 109.56935243769506 232.22202376080955 109.43400226909682 233.21478271484375 111.06095886230469 C 233.81598582230555 112.04622457616932 233.54896545410156 115.66162273010961 233.54896545410156 114.50741577148438 C 233.54896545410156 107.55225439355128 241.75599849376073 103.14022411683372 247.6172332763672 101.990966796875 C 260.6417894075738 99.43714204352736 273.7781341520099 103.52661895751953 286.76837158203125 103.52661895751953" style="stroke: rgb(0, 0, 0); fill: none;"/>
  <path d="M 262.24585592594264 66.85718335564016 C 267.361677399656 60.521210359712654 274.6649713756388 53.4040383166417 282.7435607910156 51.2125358581543 C 286.2627233001635 50.25788240393434 290.2432556152344 51.39523534975172 290.2432556152344 55.52802658081055 C 290.2432556152344 56.722196084226994 290.42374980298 53.131005254274875 290.7447814941406 51.980796813964844 C 291.48209685735816 49.33910636005016 292.7494908742056 46.89267949919258 295.0780334472656 45.2949333190918 C 300.5435865982897 41.544704841323075 307.402222562836 42.556602478027344 313.55084228515625 42.556602478027344" style="stroke: rgb(0, 0, 0); fill: none;"/>
  <path d="M 274.97968434251885 139.0319783537709 C 278.96071183490534 132.82760189548853 284.57250257993246 127.37194440188216 290.9464416503906 123.58409118652344 C 292.0936682317569 122.9023266062635 294.787918461638 121.47807330552604 296.27606201171875 122.2221450805664 C 297.01014200943973 122.5891850794269 297.5932312011719 125.12310981076506 297.5932312011719 124.30238342285156 C 297.5932312011719 112.76431324859769 308.4786039258324 111.5522232055664 317.5271301269531 111.5522232055664" style="stroke: rgb(0, 0, 0); fill: none;"/>
  <path d="M 182.96509181945595 58.638883391109005 C 190.22758854503954 50.07076234183607 200.22014837073286 39.29245428445367 211.63731384277344 36.92365646362305 C 215.27767019098926 36.16836670227046 215.08114489123463 39.79500348921805 214.94602966308594 42.24504852294922 C 214.8795563736014 43.45040897719916 213.55488053841893 46.23908604633552 214.700439453125 45.8582878112793 C 218.43079827691503 44.618269477879025 221.8471779832052 38.80936385145501 226.20269775390625 37.20158767700195 C 233.4124319699135 34.540220146400735 242.12931887438117 34.3229438949605 249.30484008789062 37.164772033691406 C 249.91893838324214 37.40798249377492 254.07772827148438 39.09751045273535 254.07772827148438 40.29440689086914" style="stroke: rgb(0, 0, 0); fill: none;"/>
  <path d="M 59.66856813643551 66.95520191222582 C 68.31366025630874 62.225286803890604 77.18132447399671 58.10531577800043 87.14070892333984 57.23146438598633 C 89.56021094320771 57.01917363460541 92.46456449674457 56.904616783196204 94.85820007324219 57.49394607543945 C 95.84394506372836 57.73664316904865 96.63922730325552 60.664871105245375 96.95710754394531 59.700740814208984 C 99.88965615262853 50.806325302779896 115.48595372945182 42.748849441236494 123.76786041259766 41.77259826660156 C 127.84307342460637 41.2922219906943 131.64488177809278 42.88087463378906 135.57220458984375 42.88087463378906" style="stroke: rgb(0, 0, 0); fill: none;"/>
</svg>